<svg xmlns="http://www.w3.org/2000/svg" width="11" height="10"><path d="M3.668.625c0-.344.273-.625.61-.625h2.445c.336 0 .609.281.609.625v.625h.918c.508 0 .918.422.918.938v2.5l.848.289c.441.148.562.734.218 1.054l-1.93 1.805c-.308.184-.66.297-.972.297-.371 0-.777-.149-1.129-.399a1.21 1.21 0 00-1.406 0c-.328.235-.727.399-1.133.399-.309 0-.66-.11-.973-.297L.766 6.027c-.344-.32-.223-.902.218-1.05l.848-.29v-2.5c0-.515.41-.937.918-.937h.918zm-.613 3.648l2.058-.703c.25-.086.524-.086.774 0l2.058.703V2.5h-4.89zm2.797 3.97c.43.3.957.507 1.48.507.516 0 1.059-.21 1.48-.508a.59.59 0 01.747.031c.277.23.62.41.968.493a.628.628 0 01.457.75.611.611 0 01-.734.464 3.484 3.484 0 01-1.113-.488c-.551.305-1.172.508-1.805.508-.61 0-1.156-.195-1.535-.367A9.868 9.868 0 015.5 9.48c-.086.047-.184.102-.297.153-.379.172-.926.367-1.535.367-.633 0-1.254-.203-1.805-.504a3.64 3.64 0 01-1.113.488.614.614 0 01-.734-.468.628.628 0 01.457-.75c.347-.079.691-.258.968-.493a.603.603 0 01.746-.03c.422.296.965.507 1.481.507.523 0 1.05-.207 1.48-.508a.586.586 0 01.704 0zm0 0" id="surface1"/></svg>