 <svg width="11px" height="15px" viewBox="0 0 11 14" version="1.1">
                  <g>
                    <path 
                      d="M 6.148438 1.132812 C 5.789062 0.789062 5.207031 0.789062 4.851562 1.132812 L 0.265625 5.507812 C -0.0898438 5.847656 -0.0898438 6.402344 0.265625 6.746094 C 0.625 7.085938 1.207031 7.085938 1.5625 6.746094 L 4.582031 3.859375 L 4.582031 12.25 C 4.582031 12.734375 4.992188 13.125 5.5 13.125 C 6.007812 13.125 6.417969 12.734375 6.417969 12.25 L 6.417969 3.859375 L 9.4375 6.742188 C 9.792969 7.085938 10.375 7.085938 10.734375 6.742188 C 11.089844 6.402344 11.089844 5.847656 10.734375 5.503906 L 6.148438 1.128906 Z M 6.148438 1.132812 " />
                  </g>
                </svg>