<?xml version="1.0" encoding="UTF-8"?>
<svg xmlns="http://www.w3.org/2000/svg" xmlns:xlink="http://www.w3.org/1999/xlink" width="11px" height="10px" viewBox="0 0 11 10" version="1.1">
<g id="surface1">
<path style=" stroke:none;fill-rule:nonzero;fill:rgb(0%,0%,0%);fill-opacity:1;" d="M 3.667969 0.625 C 3.667969 0.28125 3.941406 0 4.277344 0 L 6.722656 0 C 7.058594 0 7.332031 0.28125 7.332031 0.625 L 7.332031 1.25 L 8.25 1.25 C 8.757812 1.25 9.167969 1.671875 9.167969 2.1875 L 9.167969 4.6875 L 10.015625 4.976562 C 10.457031 5.125 10.578125 5.710938 10.234375 6.03125 L 8.304688 7.835938 C 7.996094 8.019531 7.644531 8.132812 7.332031 8.132812 C 6.960938 8.132812 6.554688 7.984375 6.203125 7.734375 C 5.78125 7.433594 5.21875 7.433594 4.796875 7.734375 C 4.46875 7.96875 4.070312 8.132812 3.664062 8.132812 C 3.355469 8.132812 3.003906 8.023438 2.691406 7.835938 L 0.765625 6.027344 C 0.421875 5.707031 0.542969 5.125 0.984375 4.976562 L 1.832031 4.6875 L 1.832031 2.1875 C 1.832031 1.671875 2.242188 1.25 2.75 1.25 L 3.667969 1.25 Z M 3.054688 4.273438 L 5.113281 3.570312 C 5.363281 3.484375 5.636719 3.484375 5.886719 3.570312 L 7.945312 4.273438 L 7.945312 2.5 L 3.054688 2.5 Z M 5.851562 8.242188 C 6.28125 8.542969 6.808594 8.75 7.332031 8.75 C 7.847656 8.75 8.390625 8.539062 8.8125 8.242188 C 9.039062 8.074219 9.347656 8.085938 9.558594 8.273438 C 9.835938 8.503906 10.179688 8.683594 10.527344 8.765625 C 10.855469 8.84375 11.058594 9.179688 10.984375 9.515625 C 10.90625 9.851562 10.578125 10.058594 10.25 9.980469 C 9.78125 9.871094 9.390625 9.660156 9.136719 9.492188 C 8.585938 9.796875 7.964844 10 7.332031 10 C 6.722656 10 6.175781 9.804688 5.796875 9.632812 C 5.6875 9.578125 5.585938 9.527344 5.5 9.480469 C 5.414062 9.527344 5.316406 9.582031 5.203125 9.632812 C 4.824219 9.804688 4.277344 10 3.667969 10 C 3.035156 10 2.414062 9.796875 1.863281 9.496094 C 1.605469 9.660156 1.21875 9.875 0.75 9.984375 C 0.421875 10.0625 0.09375 9.851562 0.015625 9.515625 C -0.0585938 9.179688 0.144531 8.84375 0.472656 8.765625 C 0.820312 8.6875 1.164062 8.507812 1.441406 8.273438 C 1.652344 8.09375 1.960938 8.078125 2.1875 8.242188 C 2.609375 8.539062 3.152344 8.75 3.667969 8.75 C 4.191406 8.75 4.71875 8.542969 5.148438 8.242188 C 5.359375 8.085938 5.640625 8.085938 5.851562 8.242188 Z M 5.851562 8.242188 "/>
</g>
</svg>
